<mxfile host="app.diagrams.net" modified="2024-02-09T10:06:37.410Z" agent="Mozilla/5.0 (Windows NT 10.0; Win64; x64; rv:123.0) Gecko/20100101 Firefox/123.0" etag="VRKxFEaYpj53PIz-rL9h" version="23.1.2" type="device">
  <diagram name="Page-1" id="Ep5zAJwsdA4oMOhbRIWX">
    <mxGraphModel dx="1434" dy="774" grid="1" gridSize="10" guides="1" tooltips="1" connect="1" arrows="1" fold="1" page="1" pageScale="1" pageWidth="850" pageHeight="1100" math="0" shadow="0">
      <root>
        <mxCell id="0" />
        <mxCell id="1" parent="0" />
        <mxCell id="Jm_3q_frlPXFCQGo-c0G-9" style="edgeStyle=orthogonalEdgeStyle;rounded=0;orthogonalLoop=1;jettySize=auto;html=1;exitX=1;exitY=0.75;exitDx=0;exitDy=0;entryX=0;entryY=0.75;entryDx=0;entryDy=0;strokeWidth=2;" edge="1" parent="1" source="Jm_3q_frlPXFCQGo-c0G-1" target="Jm_3q_frlPXFCQGo-c0G-3">
          <mxGeometry relative="1" as="geometry" />
        </mxCell>
        <mxCell id="Jm_3q_frlPXFCQGo-c0G-17" style="edgeStyle=orthogonalEdgeStyle;rounded=0;orthogonalLoop=1;jettySize=auto;html=1;exitX=0.25;exitY=1;exitDx=0;exitDy=0;entryX=0.25;entryY=0;entryDx=0;entryDy=0;strokeWidth=2;" edge="1" parent="1" source="Jm_3q_frlPXFCQGo-c0G-1" target="Jm_3q_frlPXFCQGo-c0G-4">
          <mxGeometry relative="1" as="geometry" />
        </mxCell>
        <mxCell id="Jm_3q_frlPXFCQGo-c0G-1" value="Labratorium" style="whiteSpace=wrap;html=1;aspect=fixed;" vertex="1" parent="1">
          <mxGeometry x="160" y="80" width="120" height="120" as="geometry" />
        </mxCell>
        <mxCell id="Jm_3q_frlPXFCQGo-c0G-10" style="edgeStyle=orthogonalEdgeStyle;rounded=0;orthogonalLoop=1;jettySize=auto;html=1;exitX=0.75;exitY=0;exitDx=0;exitDy=0;entryX=0.75;entryY=1;entryDx=0;entryDy=0;strokeWidth=2;" edge="1" parent="1" source="Jm_3q_frlPXFCQGo-c0G-2" target="Jm_3q_frlPXFCQGo-c0G-3">
          <mxGeometry relative="1" as="geometry" />
        </mxCell>
        <mxCell id="Jm_3q_frlPXFCQGo-c0G-14" style="edgeStyle=orthogonalEdgeStyle;rounded=0;orthogonalLoop=1;jettySize=auto;html=1;exitX=0;exitY=0.25;exitDx=0;exitDy=0;entryX=1;entryY=0.25;entryDx=0;entryDy=0;strokeWidth=2;" edge="1" parent="1" source="Jm_3q_frlPXFCQGo-c0G-2" target="Jm_3q_frlPXFCQGo-c0G-4">
          <mxGeometry relative="1" as="geometry" />
        </mxCell>
        <mxCell id="Jm_3q_frlPXFCQGo-c0G-2" value="Eetzaal" style="whiteSpace=wrap;html=1;aspect=fixed;" vertex="1" parent="1">
          <mxGeometry x="520" y="320" width="120" height="120" as="geometry" />
        </mxCell>
        <mxCell id="Jm_3q_frlPXFCQGo-c0G-8" style="edgeStyle=orthogonalEdgeStyle;rounded=0;orthogonalLoop=1;jettySize=auto;html=1;exitX=0;exitY=0.25;exitDx=0;exitDy=0;entryX=1;entryY=0.25;entryDx=0;entryDy=0;strokeWidth=2;" edge="1" parent="1" source="Jm_3q_frlPXFCQGo-c0G-3" target="Jm_3q_frlPXFCQGo-c0G-1">
          <mxGeometry relative="1" as="geometry" />
        </mxCell>
        <mxCell id="Jm_3q_frlPXFCQGo-c0G-16" style="edgeStyle=orthogonalEdgeStyle;rounded=0;orthogonalLoop=1;jettySize=auto;html=1;exitX=0.25;exitY=1;exitDx=0;exitDy=0;entryX=0.25;entryY=0;entryDx=0;entryDy=0;strokeWidth=2;" edge="1" parent="1" source="Jm_3q_frlPXFCQGo-c0G-3" target="Jm_3q_frlPXFCQGo-c0G-2">
          <mxGeometry relative="1" as="geometry" />
        </mxCell>
        <mxCell id="Jm_3q_frlPXFCQGo-c0G-3" value="Bibliotheek" style="whiteSpace=wrap;html=1;aspect=fixed;" vertex="1" parent="1">
          <mxGeometry x="520" y="80" width="120" height="120" as="geometry" />
        </mxCell>
        <mxCell id="Jm_3q_frlPXFCQGo-c0G-7" style="edgeStyle=orthogonalEdgeStyle;rounded=0;orthogonalLoop=1;jettySize=auto;html=1;strokeWidth=2;" edge="1" parent="1" source="Jm_3q_frlPXFCQGo-c0G-4" target="Jm_3q_frlPXFCQGo-c0G-6">
          <mxGeometry relative="1" as="geometry" />
        </mxCell>
        <mxCell id="Jm_3q_frlPXFCQGo-c0G-12" style="edgeStyle=orthogonalEdgeStyle;rounded=0;orthogonalLoop=1;jettySize=auto;html=1;exitX=1;exitY=0.75;exitDx=0;exitDy=0;entryX=0;entryY=0.75;entryDx=0;entryDy=0;strokeWidth=2;" edge="1" parent="1" source="Jm_3q_frlPXFCQGo-c0G-4" target="Jm_3q_frlPXFCQGo-c0G-2">
          <mxGeometry relative="1" as="geometry" />
        </mxCell>
        <mxCell id="Jm_3q_frlPXFCQGo-c0G-15" style="edgeStyle=orthogonalEdgeStyle;rounded=0;orthogonalLoop=1;jettySize=auto;html=1;exitX=0.75;exitY=0;exitDx=0;exitDy=0;entryX=0.75;entryY=1;entryDx=0;entryDy=0;strokeWidth=2;" edge="1" parent="1" source="Jm_3q_frlPXFCQGo-c0G-4" target="Jm_3q_frlPXFCQGo-c0G-1">
          <mxGeometry relative="1" as="geometry" />
        </mxCell>
        <mxCell id="Jm_3q_frlPXFCQGo-c0G-4" value="Ontvangsthall" style="whiteSpace=wrap;html=1;aspect=fixed;" vertex="1" parent="1">
          <mxGeometry x="160" y="320" width="120" height="120" as="geometry" />
        </mxCell>
        <mxCell id="Jm_3q_frlPXFCQGo-c0G-6" value="Kluis met &quot;het antwoord&quot;" style="ellipse;whiteSpace=wrap;html=1;" vertex="1" parent="1">
          <mxGeometry x="160" y="490" width="120" height="80" as="geometry" />
        </mxCell>
        <mxCell id="Jm_3q_frlPXFCQGo-c0G-19" style="edgeStyle=orthogonalEdgeStyle;rounded=0;orthogonalLoop=1;jettySize=auto;html=1;entryX=0;entryY=0.5;entryDx=0;entryDy=0;strokeWidth=2;" edge="1" parent="1" source="Jm_3q_frlPXFCQGo-c0G-18" target="Jm_3q_frlPXFCQGo-c0G-4">
          <mxGeometry relative="1" as="geometry" />
        </mxCell>
        <mxCell id="Jm_3q_frlPXFCQGo-c0G-18" value="Start" style="rhombus;whiteSpace=wrap;html=1;" vertex="1" parent="1">
          <mxGeometry x="50" y="350" width="60" height="60" as="geometry" />
        </mxCell>
      </root>
    </mxGraphModel>
  </diagram>
</mxfile>
